<?xml version="1.0" standalone="no"?>
<!DOCTYPE svg PUBLIC "-//W3C//DTD SVG 20010904//EN"
 "http://www.w3.org/TR/2001/REC-SVG-20010904/DTD/svg10.dtd">
<svg version="1.0" xmlns="http://www.w3.org/2000/svg"
 width="128.000000pt" height="50.000000pt" viewBox="0 0 128.000000 50.000000"
 preserveAspectRatio="xMidYMid meet">

<g transform="translate(0.000000,50.000000) scale(0.100000,-0.100000)"
fill="#000000" stroke="none">
<path d="M543 485 c-39 -17 -73 -68 -73 -110 0 -16 9 -49 20 -73 l19 -43 -25
-9 c-14 -6 -59 -10 -100 -10 l-74 0 0 -45 0 -45 36 0 c30 0 34 -2 25 -14 -21
-25 -81 -48 -128 -48 -86 0 -153 71 -153 162 0 113 115 187 230 145 48 -17 52
-15 81 38 27 48 -170 77 -256 38 -50 -22 -96 -67 -121 -118 -27 -54 -26 -164
3 -218 66 -124 214 -170 337 -105 l56 29 36 -24 c46 -31 90 -39 162 -30 31 3
71 6 87 6 356 -13 368 -12 412 4 92 35 151 115 160 214 9 99 -50 200 -142 242
-32 15 -66 19 -172 19 l-133 0 0 -115 0 -115 -45 0 c-46 0 -63 -16 -23 -22 38
-5 49 -71 19 -117 -13 -20 -29 -5 -97 84 l-53 70 47 22 c46 22 82 64 82 98 0
79 -124 131 -217 90z m102 -25 c25 -28 25 -113 0 -140 -10 -11 -21 -20 -25
-20 -8 0 -60 112 -60 129 0 48 53 67 85 31z m436 -61 c74 -25 113 -85 107
-164 -8 -99 -68 -145 -198 -153 -41 -3 -84 -11 -95 -18 -26 -19 -44 -17 -83 6
l-32 20 36 51 c21 28 52 63 70 77 34 27 34 28 34 110 l0 82 64 0 c34 0 78 -5
97 -11z m-526 -211 c16 -24 53 -68 82 -100 l54 -56 -30 -7 c-62 -13 -129 23
-152 83 -16 42 -9 122 11 122 4 0 20 -19 35 -42z"/>
</g>
</svg>
